<svg id="Layer_1" data-name="Layer 1" xmlns="http://www.w3.org/2000/svg" viewBox="0 0 239.55 366.38"><path d="M232.15,333c0-5.66-.3-11.35.09-17,.35-5.05-1.3-7.31-6.47-8.48-22.84-5.15-42.83-16-58.8-33.09-32.69-35.07-42.67-76.25-27.42-121.61,15.13-45,47.75-72.18,94.58-79.81,70.94-11.56,132.56,41.55,137.65,109,4.42,58.53-34.86,112.43-92.41,125.52-4.66,1.06-6.23,3-6.12,7.74.3,12.15.23,24.32,0,36.48-.06,4.3,1.45,6,5.81,5.86,6.65-.23,13.33.05,20-.08,4.08-.09,5.61,1.65,5.54,5.7q-.24,15,0,30c.07,4-1.36,5.73-5.51,5.6-6.83-.21-13.67.08-20.49-.1-3.85-.1-5.4,1.3-5.32,5.22.16,9.16-.1,18.33.1,27.49.1,4.7-1.61,6.55-6.44,6.41-9.48-.28-19-.27-28.48,0-4.69.13-6.58-1.37-6.42-6.25.29-9-.08-18,.14-27,.11-4.27-1.31-6-5.73-5.88-7,.25-14,0-21,.09-3.59.07-5.17-1.31-5.14-5q.15-15.49,0-31c0-3.88,1.67-5.37,5.42-5.31,7,.1,14-.15,21,.07,4.2.14,5.59-1.55,5.44-5.6C232,345.69,232.14,339.35,232.15,333ZM171.37,190.86a81,81,0,0,0,81,81.6c44.55.06,81.71-36.6,81.79-80.7.08-45.15-36.49-82.06-81.4-82.16A81,81,0,0,0,171.37,190.86Z" transform="translate(-132.57 -71.46)" fill="#fb00b8"/></svg>