<svg id="Layer_2" data-name="Layer 2" xmlns="http://www.w3.org/2000/svg" viewBox="0 0 310.83 310.92"><path d="M366.62,160.77c-2.93.66-3.9,2.33-5.16,3.58-14.52,14.47-28.9,29.08-43.57,43.38-3.27,3.18-3.55,5.45-1.1,9.23,12.75,19.68,18.81,41.38,18.81,64.8,0,47.3-29.91,91.71-73.77,109.57-46,18.74-98.19,7.75-132.35-28.37-19.57-20.71-30.13-45.51-32.2-74.07-4.59-63.22,42.12-119.11,104.91-126.44a116,116,0,0,1,76.92,17.27c4.61,2.88,7.31,2.82,11.22-1.25,14.22-14.76,28.89-29.08,43.35-43.6,1-1,3-1.85,2.26-3.48s-2.69-.82-4.11-.83c-7.49-.07-15-.14-22.49,0-3.94.07-5.83-1.31-5.76-5.5.15-10,.13-20,0-30,0-4.09,1.68-5.57,5.7-5.56q46.48.09,93-.09c4.12,0,5.55,1.51,5.53,5.58q-.19,46.25-.11,92.48c0,3.77-1.24,5.44-5.2,5.38-10.16-.17-20.33-.2-30.49,0-4.3.09-5.49-1.8-5.42-5.7C366.72,178.53,366.62,169.9,366.62,160.77Zm-69,120.17c0-45.47-35.69-81.3-81-81.38-45.6-.09-81.91,35.9-81.92,81.19a81.48,81.48,0,1,0,163,.19Z" transform="translate(-96.96 -89.42)" fill="#fed70e"/></svg>